<svg width="82" height="78" viewBox="0 0 82 78" fill="none" xmlns="http://www.w3.org/2000/svg">
<path d="M18.4324 62.7656C15.8037 62.7656 13.6654 64.8157 13.6654 67.3359C13.6654 69.8561 15.8037 71.9062 18.4324 71.9062C21.0611 71.9062 23.1994 69.8561 23.1994 67.3359C23.1994 64.8157 21.0611 62.7656 18.4324 62.7656ZM18.4324 68.8593C17.556 68.8593 16.8434 68.1761 16.8434 67.3359C16.8434 66.4956 17.556 65.8124 18.4324 65.8124C19.3088 65.8124 20.0214 66.4956 20.0214 67.3359C20.0214 68.1761 19.3088 68.8593 18.4324 68.8593Z" fill="#C29216"/>
<path d="M76.5895 62.7656H74.0471V29.8594C74.0471 29.0179 73.3357 28.3359 72.4581 28.3359H64.5131V7.61719C64.5131 6.77573 63.8018 6.09375 62.9241 6.09375C56.2292 6.09375 37.3581 6.09375 31.1443 6.09375C30.2666 6.09375 29.5553 6.77573 29.5553 7.61719V62.7656H28.4833C27.3841 60.5358 25.5257 58.7541 23.1993 57.6996V4.57031C23.1993 2.05009 21.061 0 18.4323 0H4.76698C2.13831 0 0 2.05009 0 4.57031C0 7.09053 2.13831 9.14062 4.76698 9.14062H13.6653V57.6996C9.82196 59.4492 7.30937 63.1935 7.30937 67.3359C7.30937 73.216 12.2992 78 18.4323 78C22.753 78 26.6585 75.5911 28.4833 71.9062H76.5895C79.2181 71.9062 81.3564 69.8562 81.3564 67.3359C81.3564 64.8157 79.2181 62.7656 76.5895 62.7656ZM70.8691 62.7656H32.7333V31.3828H43.8562V47.5312C43.8562 48.1085 44.1964 48.6357 44.7345 48.894C45.2726 49.1523 45.9169 49.0963 46.3986 48.75L51.8012 44.8652L57.2037 48.75C57.686 49.0969 58.3303 49.1517 58.8678 48.894C59.406 48.6357 59.7461 48.1085 59.7461 47.5312V31.3828H70.8691V62.7656ZM47.0342 31.3828H56.5681V44.4844L52.7546 41.7422C52.4721 41.5393 52.1363 41.4375 51.8012 41.4375C51.466 41.4375 51.1302 41.5393 50.8478 41.7422L47.0342 44.4844V31.3828ZM43.8562 9.14062H50.2122V17.8718L47.9156 16.4043C47.6487 16.2335 47.3414 16.1484 47.0342 16.1484C46.7269 16.1484 46.4197 16.2335 46.1528 16.4043L43.8562 17.8718V9.14062ZM40.6782 9.14062V20.7188C40.6782 21.2805 41.001 21.7965 41.5174 22.0619C42.0345 22.3273 42.6614 22.2975 43.1486 21.9863L47.0342 19.503L50.9198 21.9863C51.4076 22.2981 52.0352 22.3267 52.551 22.0619C53.0674 21.7971 53.3902 21.2805 53.3902 20.7188V9.14062H61.3351V28.3359C52.5628 28.3359 41.3951 28.3359 32.7333 28.3359V9.14062H40.6782ZM4.76698 6.09375C3.89055 6.09375 3.17799 5.41058 3.17799 4.57031C3.17799 3.73004 3.89055 3.04688 4.76698 3.04688H18.4323C19.3087 3.04688 20.0213 3.73004 20.0213 4.57031V56.782C19.4974 56.71 18.9674 56.6719 18.4323 56.6719C17.8973 56.6719 17.3672 56.71 16.8433 56.782V7.61719C16.8433 6.77573 16.132 6.09375 15.2543 6.09375H4.76698ZM18.4323 74.9531C14.0514 74.9531 10.4874 71.5361 10.4874 67.3359C10.4874 63.181 13.9931 59.7188 18.4323 59.7188C22.8703 59.7188 26.3773 63.1846 26.3773 67.3359C26.3773 71.592 22.766 74.9531 18.4323 74.9531ZM76.5895 68.8594H29.4404C29.5155 68.3571 29.5553 67.8489 29.5553 67.3359C29.5553 66.823 29.5149 66.3148 29.4404 65.8125H76.5895C77.4659 65.8125 78.1785 66.4957 78.1785 67.3359C78.1785 68.1762 77.4659 68.8594 76.5895 68.8594Z" fill="#C29216"/>
<path d="M66.1022 59.7196C66.9799 59.7196 67.6912 59.0375 67.6912 58.196V55.1486C67.6912 54.307 66.9799 53.6249 66.1022 53.6249C65.2245 53.6249 64.5132 54.307 64.5132 55.1486V58.196C64.5132 59.0375 65.2245 59.7196 66.1022 59.7196Z" fill="#C29216"/>
<path d="M66.1022 47.5312C66.9792 47.5312 67.6912 48.2139 67.6912 49.055C67.6912 49.8961 66.9792 50.5788 66.1022 50.5788C65.2251 50.5788 64.5132 49.8961 64.5132 49.055C64.5132 48.2139 65.2251 47.5312 66.1022 47.5312Z" fill="#C29216"/>
<path d="M59.7462 53.6249C58.8685 53.6249 58.1572 54.307 58.1572 55.1486V58.196C58.1572 59.0375 58.8685 59.7196 59.7462 59.7196C60.6239 59.7196 61.3352 59.0375 61.3352 58.196V55.1486C61.3352 54.307 60.6239 53.6249 59.7462 53.6249Z" fill="#C29216"/>
</svg>
