<svg width="26" height="26" viewBox="0 0 26 26" fill="none" xmlns="http://www.w3.org/2000/svg">
<path d="M24.0742 0H1.91931C0.859806 0 0 0.839583 0 1.87344V24.124C0 25.1593 0.859806 26 1.91931 26H24.0742C25.1344 26 26 25.1593 26 24.124V1.87344C26 0.839583 25.1344 0 24.0742 0ZM7.71117 22.1556H3.85306V9.74819H7.71117V22.1556ZM5.78211 8.05169C5.48845 8.05169 5.19766 7.99383 4.92637 7.88141C4.65508 7.76898 4.4086 7.6042 4.20102 7.39649C3.99344 7.18877 3.82882 6.94218 3.71657 6.67082C3.60432 6.39946 3.54664 6.10863 3.54683 5.81497C3.54683 5.22219 3.78232 4.65368 4.20148 4.23452C4.62064 3.81536 5.18915 3.57987 5.78193 3.57987C6.37471 3.57987 6.94322 3.81536 7.36238 4.23452C7.78155 4.65368 8.01703 5.22219 8.01703 5.81497C8.01703 6.40788 7.78162 6.97652 7.36255 7.39594C6.94347 7.81535 6.37501 8.05122 5.78211 8.05169ZM22.1542 22.1556H18.3022V16.1222C18.3022 14.6828 18.274 12.8321 16.2977 12.8321C14.2906 12.8321 13.9847 14.3997 13.9847 16.0178V22.156H10.1299V9.74819H13.8295V11.4425H13.8822C14.3971 10.4675 15.6552 9.43872 17.5316 9.43872C21.4338 9.43872 22.1545 12.0077 22.1545 15.3497V22.1556H22.1542Z" fill="#C29216"/>
</svg>
