<svg width="26" height="26" viewBox="0 0 26 26" fill="none" xmlns="http://www.w3.org/2000/svg">
<path d="M24.5649 0H1.43506C1.05446 0 0.689443 0.151193 0.420318 0.420318C0.151193 0.689443 0 1.05446 0 1.43506V24.5653C9.57569e-05 24.9458 0.151331 25.3108 0.420446 25.5798C0.689561 25.8489 1.05452 26 1.43506 26H13.8872V15.9315H10.4989V12.0077H13.8872V9.11372C13.8872 5.75539 15.9384 3.92708 18.9341 3.92708C20.3692 3.92708 21.6024 4.03361 21.9621 4.08164V7.59128L19.8842 7.59236C18.2549 7.59236 17.9396 8.36658 17.9396 9.50264V12.008H21.8252L21.3193 15.9319H17.9396V26H24.5653C24.9458 25.9999 25.3108 25.8487 25.5798 25.5796C25.8489 25.3104 26 24.9455 26 24.5649V1.43506C26 1.05446 25.8488 0.689443 25.5797 0.420318C25.3106 0.151193 24.9455 0 24.5649 0Z" fill="#C29216"/>
</svg>
