<svg width="14" height="24" viewBox="0 0 14 24" fill="none" xmlns="http://www.w3.org/2000/svg">
<path d="M6.60001 0C4.84958 0 3.17084 0.676167 1.9331 1.87975C0.695356 3.08334 0 4.71575 0 6.41788C0 9.96269 6.60001 18.7648 6.60001 23.5322C6.60001 18.7809 13.2 9.67388 13.2 6.41788C13.2 4.71575 12.5047 3.08334 11.2669 1.87975C10.0292 0.676167 8.35044 0 6.60001 0ZM6.60001 3.20894C7.47522 3.20894 8.31459 3.54702 8.93346 4.14882C9.55233 4.75061 9.90001 5.56682 9.90001 6.41788C9.90001 7.26894 9.55233 8.08515 8.93346 8.68694C8.31459 9.28874 7.47522 9.62682 6.60001 9.62682C5.72479 9.62682 4.88542 9.28874 4.26655 8.68694C3.64768 8.08515 3.3 7.26894 3.3 6.41788C3.3 5.56682 3.64768 4.75061 4.26655 4.14882C4.88542 3.54702 5.72479 3.20894 6.60001 3.20894Z" fill="#6D6D6D"/>
</svg>
