<svg width="26" height="26" viewBox="0 0 26 26" fill="none" xmlns="http://www.w3.org/2000/svg">
<path d="M23.4722 0H2.52778C1.1375 0 0 1.1375 0 2.52778V23.4722C0 24.8625 1.1375 26 2.52778 26H23.4722C24.8625 26 26 24.8625 26 23.4722V2.52778C26 1.1375 24.8625 0 23.4722 0ZM19.036 21.7288C18.1986 22.1231 17.4402 22.4008 16.7617 22.5593C16.0828 22.7182 15.3487 22.7973 14.5596 22.7973C13.6644 22.7973 12.8725 22.6843 12.1839 22.4582C11.4956 22.2318 10.9084 21.9086 10.4224 21.4912C9.93597 21.0719 9.59906 20.6267 9.41164 20.1547C9.22386 19.6834 9.12997 18.9999 9.12997 18.1043V11.2313H6.96403V8.45867C7.73356 8.20842 8.39367 7.85019 8.94219 7.38292C9.49099 6.91639 9.94034 6.34423 10.2635 5.7005C10.5961 5.04653 10.8243 4.21381 10.9493 3.20306H13.7363V8.15569H18.3863V11.2316H13.7363V16.2569C13.7363 17.3926 13.7963 18.1216 13.9169 18.4448C14.0368 18.7673 14.261 19.0248 14.5878 19.2173C15.0211 19.4769 15.5169 19.6073 16.0752 19.6073C17.0668 19.6073 18.0538 19.2844 19.0356 18.6391L19.036 21.7288Z" fill="#C29216"/>
</svg>
