<svg width="16" height="20" viewBox="0 0 16 20" fill="none" xmlns="http://www.w3.org/2000/svg">
<path d="M8.99904 5.8833H6.99902V10.7856H11.9991V8.82471H8.99904V5.8833Z" fill="#6D6D6D"/>
<path d="M15.998 9.80534C15.998 6.90982 14.386 4.38299 11.999 3.02397V0.980534C11.999 0.438299 11.552 0 10.999 0H4.999C4.447 0 3.999 0.438299 3.999 0.980534V3.02299C1.612 4.38201 0 6.90982 0 9.80534C0 12.7577 1.673 15.3306 4.136 16.6691H3.999V18.6703C3.999 19.2126 4.447 19.6509 4.999 19.6509H10.999C11.552 19.6509 11.999 19.2126 11.999 18.6703V16.6691H11.86C14.325 15.3306 15.998 12.7577 15.998 9.80534ZM7.99799 15.6876C4.691 15.6876 2 13.0499 2 9.80534C2 6.56173 4.691 3.92312 7.99799 3.92312C11.308 3.92312 13.998 6.56173 13.998 9.80534C13.998 13.0499 11.308 15.6876 7.99799 15.6876Z" fill="#6D6D6D"/>
</svg>
