<svg width="18" height="18" viewBox="0 0 18 18" fill="none" xmlns="http://www.w3.org/2000/svg">
<path d="M17.4873 13.683L13.4223 10.059C13.0233 9.70304 12.4073 9.72167 12.0313 10.1011L9.63829 12.5142C9.06229 12.4063 7.90429 12.0524 6.71229 10.8865C5.52029 9.71677 5.15929 8.57839 5.05229 8.01753L7.51129 5.67017C7.89929 5.30149 7.91729 4.69847 7.55429 4.30626L3.85928 0.321432C3.49628 -0.071756 2.87928 -0.109016 2.46828 0.236127L0.298282 2.06087C0.125282 2.23148 0.022282 2.457 0.00828197 2.69723C-0.00671804 2.94236 -0.292718 8.749 4.29928 13.2535C8.30529 17.1805 13.3233 17.4678 14.7053 17.4678C14.9073 17.4678 15.0313 17.4619 15.0643 17.4599C15.3093 17.4462 15.5393 17.3452 15.7123 17.1746L17.5723 15.0459C17.9263 14.6429 17.8873 14.0389 17.4873 13.683Z" fill="#6D6D6D"/>
</svg>
