<svg width="82" height="78" viewBox="0 0 82 78" fill="none" xmlns="http://www.w3.org/2000/svg">
<path d="M37.4609 52.9045C38.0822 52.3086 38.0822 51.3443 37.4609 50.7484C36.839 50.1543 35.8315 50.1543 35.2089 50.7484C34.5882 51.3443 34.5882 52.3086 35.2089 52.9045C35.8315 53.4985 36.839 53.4985 37.4609 52.9045Z" fill="#C29216"/>
<path d="M29.9233 16.7531C29.9233 25.9908 37.7775 33.5068 47.4315 33.5068C57.0855 33.5068 64.9397 25.9908 64.9397 16.7531C64.9397 7.51545 57.0855 0 47.4315 0C37.7775 0 29.9233 7.51545 29.9233 16.7531ZM61.7567 16.7531C61.7567 24.3114 55.3305 30.4605 47.4315 30.4605C39.5326 30.4605 33.1063 24.3114 33.1063 16.7531C33.1063 9.1954 39.5326 3.04629 47.4315 3.04629C55.3305 3.04629 61.7567 9.1954 61.7567 16.7531Z" fill="#C29216"/>
<path d="M18.3333 77.5496C18.9502 78.1447 19.9546 78.1513 20.5797 77.5621L28.2964 70.2877C29.6074 69.0333 30.006 67.176 29.4295 65.5615L31.0894 64.0297C31.9831 63.2037 33.1598 62.7485 34.4036 62.7485H55.563C59.3169 62.7485 62.8649 61.3691 65.5547 58.8643C65.6654 58.7614 64.7145 59.8331 79.99 42.3636C82.2556 39.7988 81.9167 35.9474 79.2337 33.7771C76.5676 31.627 72.5737 31.9358 70.3018 34.4567L60.9096 43.6937C59.7236 42.297 57.9151 41.4264 55.961 41.4264H38.2122C35.6866 40.4153 33.0068 39.9035 30.2417 39.9035C22.5772 39.9035 15.8848 43.2908 12.2932 49.6416C10.7801 49.3673 9.18429 49.8053 8.03624 50.9038L0.464417 58.1705C-0.153768 58.7638 -0.155011 59.7236 0.461929 60.3187L18.3333 77.5496ZM30.2411 42.9492C32.679 42.9492 35.0361 43.4187 37.2482 44.3447C37.4497 44.4292 37.6668 44.4726 37.8863 44.4726H55.961C57.6869 44.4726 59.1446 45.8193 59.1446 47.5183C59.1446 49.1983 57.7167 50.5646 55.961 50.5646H42.9748C42.0961 50.5646 41.3833 51.2466 41.3833 52.0874C41.3833 52.9289 42.0961 53.6103 42.9748 53.6103H55.961C59.4718 53.6103 62.3276 50.8776 62.3276 47.5183C62.3276 47.2505 62.3077 46.9851 62.2716 46.7221C71.3572 37.7856 72.6383 36.53 72.6931 36.4675C73.8274 35.1862 75.8412 35.0238 77.1808 36.1045C78.5217 37.1893 78.6914 39.115 77.554 40.4034L63.2779 56.7339C61.1932 58.6489 58.4562 59.7028 55.563 59.7028H34.4036C32.3301 59.7028 30.3674 60.4616 28.8785 61.838L27.5258 63.0871L15.0564 51.1561C17.9707 45.9247 23.4392 42.9492 30.2411 42.9492ZM10.2888 53.0562C10.8137 52.554 11.6197 52.4635 12.2597 52.842C12.5352 53.0027 11.7441 52.3136 26.0457 65.9793C26.6819 66.588 26.6477 67.558 26.0544 68.1257L19.4758 74.3272L3.83644 59.2482L10.2888 53.0562Z" fill="#C29216"/>
<path d="M45.5217 7.61539V9.40008C43.669 10.0285 42.3381 11.7215 42.3381 13.7074C42.3381 16.2264 44.4799 18.2765 47.1131 18.2765C47.9907 18.2765 48.7046 18.9597 48.7046 19.7993C48.7046 20.639 47.9907 21.3222 47.1131 21.3222C46.4334 21.3222 45.6989 20.9134 45.0465 20.1701C44.4806 19.5262 43.4768 19.4435 42.8039 19.9844C42.131 20.526 42.0439 21.4864 42.6098 22.1303C43.4606 23.0986 44.4613 23.7734 45.5217 24.1138V25.8913C45.5217 26.7328 46.2344 27.4142 47.1131 27.4142C47.9919 27.4142 48.7046 26.7328 48.7046 25.8913V24.1066C50.5573 23.4776 51.8882 21.7846 51.8882 19.7993C51.8882 17.2797 49.7463 15.2302 47.1131 15.2302C46.2356 15.2302 45.5217 14.547 45.5217 13.7074C45.5217 12.8677 46.2356 12.1839 47.1131 12.1839C47.6772 12.1839 48.2724 12.4595 48.8346 12.9802C49.4665 13.5651 50.474 13.5491 51.0853 12.9451C51.6967 12.3404 51.6799 11.3764 51.0486 10.7914C50.2408 10.0434 49.4323 9.62026 48.7046 9.38937V7.61539C48.7046 6.77393 47.9919 6.09195 47.1131 6.09195C46.2344 6.09195 45.5217 6.77393 45.5217 7.61539Z" fill="#C29216"/>
</svg>
