<svg width="48" height="78" viewBox="0 0 48 78" fill="none" xmlns="http://www.w3.org/2000/svg">
<path d="M23.835 49.208C24.712 49.208 25.424 48.5252 25.424 47.684C25.424 46.8429 24.712 46.1601 23.835 46.1601C22.9579 46.1601 22.246 46.8429 22.246 47.684C22.246 48.5252 22.9579 49.208 23.835 49.208Z" fill="#C29216"/>
<path d="M32.5241 37.6652C36.211 35.5175 39.263 32.4944 41.351 28.9221C43.4055 25.4069 44.4918 21.4293 44.4918 17.419V8.87878C46.3415 8.24977 47.6698 6.55614 47.6698 4.57031V1.52344C47.6698 0.681976 46.9584 0 46.0808 0H1.58899C0.711322 0 0 0.681976 0 1.52344V4.57031C0 6.55614 1.3283 8.24977 3.17798 8.87878V17.419C3.17798 21.4293 4.26421 25.4069 6.31873 28.9221C8.40676 32.4944 11.4594 35.5181 15.1463 37.6652C15.6174 37.9395 15.8992 38.4388 15.8992 39C15.8992 39.5618 15.6174 40.0605 15.1463 40.3354C11.4594 42.4825 8.40676 45.5056 6.31873 49.0779C4.26421 52.5931 3.17798 56.5707 3.17798 60.581V69.1212C1.3283 69.7502 0 71.4439 0 73.4297V76.4766C0 77.318 0.711322 78 1.58899 78H46.0808C46.9584 78 47.6698 77.318 47.6698 76.4766V73.4297C47.6698 71.4439 46.3415 69.7502 44.4918 69.1212V60.581C44.4918 56.5707 43.4055 52.5931 41.351 49.0779C39.263 45.5056 36.2104 42.4819 32.5234 40.3348C32.0523 40.0605 31.7705 39.5612 31.7705 39C31.7705 38.4382 32.0523 37.9395 32.5241 37.6652ZM3.17798 3.04688H44.4918V4.57031C44.4918 5.41058 43.7792 6.09375 42.9028 6.09375H4.76698C3.89055 6.09375 3.17798 5.41058 3.17798 4.57031V3.04688ZM44.4918 74.9531H3.17798V73.4297C3.17798 72.5894 3.89055 71.9062 4.76698 71.9062H42.9028C43.7792 71.9062 44.4918 72.5894 44.4918 73.4297V74.9531ZM30.8742 42.9389C37.4108 46.7463 41.3138 53.3417 41.3138 60.581V68.8594H6.35597V60.581C6.35597 53.3417 10.2589 46.7463 16.7955 42.9389C18.2244 42.1076 19.0772 40.6347 19.0772 39C19.0772 37.3653 18.2244 35.8924 16.7955 35.0611C10.2589 31.2537 6.35597 24.6583 6.35597 17.419V9.14062H41.3138V17.419C41.3138 24.6583 37.4108 31.2537 30.8742 35.0611C29.4454 35.8924 28.5925 37.3653 28.5925 39C28.5925 40.6347 29.4454 42.1076 30.8742 42.9389Z" fill="#C29216"/>
<path d="M25.1011 52.7811C24.8013 52.3979 24.3309 52.1718 23.8312 52.1718C23.8312 52.1718 23.8306 52.1718 23.8299 52.1718C23.3309 52.1718 22.8604 52.3967 22.5606 52.7787C21.9616 53.5428 21.2155 54.1921 20.3435 54.7104C18.5236 55.7614 16.8979 56.4183 15.4629 56.9986C12.2812 58.2851 9.53394 59.3962 9.53394 63.619V64.289C9.53394 65.1305 10.2453 65.8125 11.1229 65.8125H36.5469C37.4246 65.8125 38.1359 65.1305 38.1359 64.289V63.619C38.1359 59.3986 35.3818 58.2828 32.1933 56.9902C30.7464 56.4035 29.1065 55.7393 27.2637 54.6759C26.4189 54.1731 25.6914 53.5351 25.1011 52.7811ZM34.8952 62.7656H12.774C13.0161 61.3576 14.0173 60.8899 16.6981 59.8062C18.1573 59.2159 19.9729 58.4821 21.992 57.3157C21.997 57.3122 22.0026 57.3092 22.0076 57.3062C22.6667 56.9152 23.2757 56.4683 23.8287 55.9702C24.3681 56.4564 24.959 56.8908 25.5977 57.2705C25.6033 57.2735 25.6089 57.2771 25.6145 57.28C27.6553 58.4583 29.4852 59.2004 30.9556 59.7967C33.6476 60.8875 34.6525 61.3576 34.8952 62.7656Z" fill="#C29216"/>
<path d="M38.1359 17.4278V14.6249C38.1359 14.0709 37.8224 13.5609 37.3172 13.2925C36.8119 13.0235 36.195 13.0396 35.7046 13.333C32.1418 15.4682 28.0377 16.5965 23.8349 16.5965C19.6328 16.5965 15.5281 15.4682 11.9652 13.333C11.4749 13.0396 10.8579 13.0241 10.3526 13.2925C9.84739 13.5609 9.53394 14.0709 9.53394 14.6249V17.4278C9.53394 20.0629 10.5953 22.8991 12.6027 25.6294C14.548 28.2752 17.2462 30.6383 20.4062 32.4646C21.048 32.8473 21.6767 33.39 22.2459 34.0458V41.5898C22.2459 42.4313 22.9572 43.1132 23.8349 43.1132C24.712 43.1132 25.4239 42.4313 25.4239 41.5898V34.0488C26.0036 33.3852 26.6535 32.83 27.3264 32.4301C33.7922 28.6911 38.1359 22.6634 38.1359 17.4278ZM25.6778 29.8248C25.6728 29.8284 25.6672 29.8307 25.6623 29.8343C25.0285 30.2098 24.4146 30.6746 23.8405 31.209C23.2837 30.6865 22.6922 30.2384 22.0721 29.87C22.0665 29.8665 22.0609 29.8635 22.0554 29.8599C16.4666 26.6327 12.7119 21.6369 12.7119 17.4278V17.2035C16.1699 18.8055 19.9661 19.6433 23.8349 19.6433C27.7037 19.6433 31.5 18.8055 34.9579 17.2035V17.4278C34.9579 21.5709 31.1418 26.6684 25.6778 29.8248Z" fill="#C29216"/>
</svg>
