<svg width="84" height="78" viewBox="0 0 84 78" fill="none" xmlns="http://www.w3.org/2000/svg">
<path d="M17.8609 40.5234C16.9643 40.5234 16.2366 41.2062 16.2366 42.0473C16.2366 42.8884 16.9643 43.5711 17.8609 43.5711C18.7575 43.5711 19.4852 42.8884 19.4852 42.0473C19.4852 41.2062 18.7575 40.5234 17.8609 40.5234Z" fill="#C29216"/>
<path d="M79.6023 31.1763C79.4481 30.4455 79.7121 29.3928 79.9665 28.3746C80.351 26.8399 80.7856 25.101 80.0826 23.5079C79.365 21.8863 77.728 20.9377 76.2833 20.101C75.3499 19.5601 74.3842 19.0007 73.9617 18.408C73.5296 17.8022 73.3437 16.7435 73.1647 15.72C72.8913 14.1573 72.581 12.3857 71.2695 11.1556C69.958 9.92555 68.0685 9.63515 66.4023 9.37866C65.311 9.21085 64.1828 9.03708 63.5388 8.63361C62.9056 8.23608 62.3098 7.33035 61.7331 6.45438C60.8403 5.09935 59.8289 3.56282 58.0993 2.89037C56.402 2.23041 54.5481 2.63864 52.9123 2.99867C51.8261 3.2379 50.703 3.48486 49.9245 3.34085C49.1498 3.19684 48.035 2.57437 46.957 1.97214C45.2216 1.00273 43.4267 0 41.5822 0C39.7364 0 37.9408 1.00273 36.2042 1.97214C35.1262 2.57437 34.0114 3.19684 33.2367 3.34085C32.4588 3.48486 31.3364 3.2379 30.2508 2.99867C28.6144 2.63864 26.7604 2.23041 25.0625 2.89037C23.3335 3.56342 22.3221 5.09935 21.4294 6.45438C20.8533 7.33035 20.2568 8.23608 19.6249 8.63301C18.9809 9.03708 17.8527 9.21085 16.7614 9.37866C15.0946 9.63515 13.2057 9.92615 11.8929 11.1562C10.5827 12.3851 10.2731 14.1549 9.99962 15.717C9.82069 16.7411 9.63542 17.8004 9.20143 18.4074C8.77822 19.0013 7.81315 19.5601 6.87981 20.101C5.43571 20.9383 3.79871 21.8863 3.08174 23.5091C2.37872 25.101 2.81271 26.8393 3.19594 28.3728C3.45038 29.391 3.71369 30.4444 3.55887 31.1763C3.40596 31.9035 2.74228 32.9491 2.10017 33.9608C1.06785 35.5883 0 37.2707 0 39C0 40.7305 1.06785 42.414 2.10081 44.0422C2.74228 45.0539 3.40596 46.0995 3.55887 46.8284C3.71306 47.558 3.45038 48.6113 3.19594 49.6295C2.81271 51.1637 2.37872 52.902 3.08174 54.4932C3.79935 56.1155 5.43571 57.0634 6.87981 57.9007C7.81315 58.4411 8.77822 59.0005 9.20333 59.5962C9.63542 60.2002 9.82133 61.2594 10.0003 62.2836C10.2731 63.8451 10.5827 65.6149 11.8929 66.8456C13.2038 68.0744 15.0908 68.3649 16.7557 68.6213C17.8483 68.7892 18.9777 68.9629 19.6249 69.37C20.2575 69.7669 20.8539 70.672 21.4307 71.5474C22.3228 72.9018 23.3341 74.4366 25.0638 75.1096C26.7598 75.769 28.6131 75.3614 30.2488 75.0025C31.3345 74.7639 32.4582 74.5175 33.2373 74.6621C34.012 74.8055 35.1275 75.428 36.2061 76.0296C37.9421 76.9985 39.7371 78 41.5822 78C43.426 78 45.2204 76.9985 46.9551 76.0302C48.0337 75.428 49.1491 74.8055 49.9251 74.6621C50.7043 74.5175 51.8273 74.7639 52.9142 75.0025C54.5493 75.362 56.4027 75.769 58.0999 75.1096C59.8289 74.4372 60.8403 72.9018 61.7324 71.5474C62.3092 70.672 62.905 69.7669 63.5395 69.3694C64.1854 68.9629 65.3148 68.7892 66.4067 68.6213C68.0717 68.3649 69.9593 68.0744 71.2695 66.8456C72.581 65.6161 72.8913 63.8445 73.1647 62.2818C73.3437 61.2577 73.5296 60.1996 73.961 59.5938C74.3842 59.0005 75.3499 58.4411 76.2833 57.9001C77.728 57.0634 79.365 56.1149 80.0826 54.4926C80.7856 52.9008 80.351 51.1619 79.9665 49.6278C79.7121 48.6096 79.4488 47.5574 79.6023 46.8279C79.7552 46.1006 80.4195 45.0551 81.061 44.044C82.0952 42.4152 83.1644 40.7311 83.1644 39C83.1644 37.2701 82.0952 35.5865 81.0616 33.959C80.4195 32.9479 79.7559 31.9023 79.6023 31.1763ZM78.2699 42.4855C77.4875 43.7185 76.6779 44.9938 76.4152 46.2357V46.2363C76.1253 47.6122 76.4704 48.9904 76.8042 50.324C77.0897 51.4636 77.3841 52.6419 77.0821 53.3263C76.7668 54.0398 75.6532 54.6843 74.5765 55.3085C73.3475 56.0202 72.0772 56.7558 71.2613 57.9001C70.4383 59.0546 70.1947 60.4442 69.9593 61.7879C69.7556 62.9513 69.5449 64.1546 68.9726 64.6908C68.4016 65.2263 67.1205 65.4239 65.8814 65.6143C64.4462 65.8351 62.9627 66.0636 61.7318 66.8378C60.5123 67.6025 59.7281 68.7939 58.9686 69.946C58.3036 70.9553 57.6165 71.9991 56.8557 72.2948C56.1254 72.5787 54.8697 72.3026 53.6547 72.036C52.2328 71.7236 50.762 71.4004 49.2951 71.673C47.9696 71.9182 46.6093 72.6775 45.294 73.4118C43.9996 74.1343 42.5326 74.9531 41.5822 74.9531C40.6304 74.9531 39.1629 74.1337 37.8672 73.4112C36.5519 72.6769 35.1916 71.9182 33.868 71.673C32.408 71.4016 30.9506 71.7188 29.5078 72.036C28.2933 72.3026 27.037 72.5787 26.3074 72.2954C25.5466 71.9991 24.8595 70.9553 24.1939 69.946C23.435 68.7939 22.6508 67.6025 21.4326 66.8384C20.2004 66.0636 18.7169 65.8351 17.2817 65.6143C16.0432 65.4239 14.7615 65.2269 14.1911 64.6913C13.6194 64.1552 13.4094 62.9531 13.2057 61.7903C12.9703 60.4448 12.7273 59.0528 11.9018 57.8996C11.0859 56.7564 9.81625 56.0202 8.58787 55.3085C7.51114 54.6849 6.39823 54.0398 6.08289 53.3269C5.78024 52.6419 6.07464 51.4636 6.3589 50.3246C6.692 48.9904 7.03653 47.6116 6.74594 46.2369C6.48453 44.9938 5.67555 43.7179 4.89258 42.4843C4.12231 41.2697 3.24861 39.8926 3.24861 39C3.24861 38.1086 4.12167 36.7327 4.89195 35.5187C5.67491 34.2851 6.48453 33.0092 6.7453 31.7672C7.03653 30.3908 6.692 29.0114 6.3589 27.6778C6.07464 26.5382 5.78024 25.3605 6.08226 24.6755C6.39823 23.9614 7.51114 23.3169 8.58724 22.6933C9.81562 21.9809 11.0859 21.2454 11.9006 20.1028C12.7267 18.9472 12.9703 17.5558 13.2057 16.2097C13.4088 15.0475 13.6188 13.846 14.1898 13.311C14.7628 12.7743 16.0463 12.5767 17.288 12.3857C18.7207 12.1649 20.2016 11.937 21.4319 11.1651C22.6508 10.3992 23.435 9.20787 24.1939 8.05577C24.8588 7.0453 25.5466 6.00092 26.3067 5.70515C27.037 5.4213 28.2933 5.69742 29.5084 5.96521C30.9297 6.27823 32.3998 6.60196 33.8674 6.33C35.1916 6.08423 36.5513 5.32489 37.8659 4.59055C39.1616 3.86691 40.6304 3.04688 41.5822 3.04688C42.5326 3.04688 44.0002 3.86691 45.2946 4.58995C46.6093 5.3243 47.969 6.08363 49.2944 6.33C50.762 6.60196 52.2322 6.27823 53.6541 5.96521C54.8691 5.69801 56.1254 5.4213 56.8551 5.70456C57.6158 6.00092 58.3036 7.0453 58.9686 8.05577C59.7274 9.20787 60.5123 10.3992 61.7324 11.1663C62.9627 11.937 64.4436 12.1649 65.8763 12.3851C67.1174 12.5761 68.4003 12.7737 68.9726 13.3104C69.5443 13.8466 69.7556 15.0499 69.9593 16.2133C70.1947 17.5576 70.4377 18.9472 71.2613 20.1016C72.0772 21.2454 73.3475 21.9809 74.5765 22.6933C75.6532 23.3169 76.7661 23.9614 77.0815 24.6743C77.3841 25.3599 77.0891 26.5382 76.8042 27.6778C76.4704 29.0114 76.1253 30.3902 76.4152 31.7666C76.6779 33.0098 77.4875 34.2851 78.2705 35.5181C79.0414 36.7321 79.9157 38.1086 79.9157 39C79.9157 39.8926 79.0414 41.2703 78.2699 42.4855Z" fill="#C29216"/>
<path d="M41.5757 9.14062C24.5973 9.14062 9.73938 23.0235 9.73938 39C9.73938 54.9241 24.5415 68.8594 41.5757 68.8594C58.5541 68.8594 73.4121 54.9765 73.4121 39C73.4121 23.0759 58.61 9.14062 41.5757 9.14062ZM41.5757 65.8125C26.3466 65.8125 12.988 53.2834 12.988 39C12.988 24.7166 26.3466 12.1875 41.5757 12.1875C56.8048 12.1875 70.1635 24.7166 70.1635 39C70.1635 53.2834 56.8048 65.8125 41.5757 65.8125Z" fill="#C29216"/>
<path d="M41.5758 18.2813C42.473 18.2813 43.2001 17.5993 43.2001 16.7579C43.2001 15.9164 42.473 15.2344 41.5758 15.2344C29.3555 15.2344 18.1846 24.6208 16.4835 35.74C16.356 36.5725 16.9727 37.3444 17.861 37.464C17.939 37.4747 18.0164 37.4795 18.0938 37.4795C18.8882 37.4795 19.583 36.932 19.6991 36.1721C21.1826 26.4745 31.2006 18.2813 41.5758 18.2813Z" fill="#C29216"/>
<path d="M56.4211 35.4051L47.1474 34.1417L43.0016 26.2603C42.7281 25.7402 42.1634 25.4111 41.5448 25.4111C40.9268 25.4111 40.3621 25.7402 40.0886 26.2603L35.9409 34.1417L26.6665 35.4051C26.0548 35.4884 25.5466 35.8907 25.3556 36.4423C25.1647 36.9934 25.3239 37.5992 25.7668 38.0038L32.4772 44.1387L30.8935 52.8026C30.7888 53.3739 31.0394 53.9518 31.5401 54.2921C32.04 54.6331 32.7031 54.6778 33.2507 54.4082L41.5448 50.3175L49.8376 54.4082C50.3795 54.6748 51.0432 54.6367 51.5488 54.2921C52.0488 53.9518 52.2995 53.3739 52.1948 52.802L50.6111 44.1387L57.3221 38.0038C57.765 37.5986 57.9242 36.9934 57.7333 36.4417C57.5416 35.8907 57.0334 35.4884 56.4211 35.4051ZM47.7317 42.5158C47.3491 42.8658 47.174 43.3704 47.2647 43.8643L48.4366 50.2747L42.3011 47.248C41.8278 47.0147 41.2624 47.0147 40.7891 47.248L34.6516 50.2747L35.8235 43.8643C35.9136 43.3704 35.7391 42.8664 35.3565 42.5158L30.391 37.9771L37.253 37.0422C37.7822 36.9702 38.2397 36.6583 38.4764 36.2084L41.5448 30.3771L44.6119 36.2084C44.8486 36.6583 45.3061 36.9702 45.8352 37.0422L52.6973 37.9771L47.7317 42.5158Z" fill="#C29216"/>
</svg>
