<svg width="192" height="50" viewBox="0 0 192 50" fill="none" xmlns="http://www.w3.org/2000/svg">
<path d="M13.728 16.176H21.696V25.76C20.512 26.624 19.248 27.2587 17.904 27.664C16.5707 28.0587 15.1573 28.256 13.664 28.256C11.7547 28.256 10.0267 27.9627 8.48 27.376C6.93333 26.7787 5.61067 25.952 4.512 24.896C3.41333 23.84 2.56533 22.5867 1.968 21.136C1.37067 19.6853 1.072 18.1013 1.072 16.384C1.072 14.6453 1.35467 13.0507 1.92 11.6C2.496 10.1493 3.312 8.90133 4.368 7.856C5.424 6.81067 6.69867 5.99467 8.192 5.408C9.696 4.82133 11.376 4.528 13.232 4.528C14.192 4.528 15.088 4.608 15.92 4.768C16.752 4.91733 17.52 5.13067 18.224 5.408C18.928 5.67467 19.5733 5.99467 20.16 6.368C20.7467 6.74133 21.28 7.152 21.76 7.6L20.368 9.744C20.1547 10.0853 19.8773 10.2933 19.536 10.368C19.1947 10.4427 18.8213 10.3573 18.416 10.112C18.032 9.87733 17.6533 9.66933 17.28 9.488C16.9173 9.296 16.528 9.13067 16.112 8.992C15.696 8.85333 15.2427 8.74667 14.752 8.672C14.2613 8.59733 13.696 8.56 13.056 8.56C11.9787 8.56 11.0027 8.74667 10.128 9.12C9.25333 9.49333 8.50667 10.0213 7.888 10.704C7.28 11.3867 6.81067 12.208 6.48 13.168C6.14933 14.128 5.984 15.2 5.984 16.384C5.984 17.664 6.16533 18.8107 6.528 19.824C6.89067 20.8267 7.40267 21.6747 8.064 22.368C8.72533 23.0613 9.51467 23.5893 10.432 23.952C11.36 24.3147 12.3893 24.496 13.52 24.496C14.288 24.496 14.9707 24.4213 15.568 24.272C16.176 24.112 16.768 23.8987 17.344 23.632V19.728H14.72C14.4107 19.728 14.1653 19.648 13.984 19.488C13.8133 19.3173 13.728 19.104 13.728 18.848V16.176ZM28.9368 14.224C29.4594 13.2853 30.0621 12.544 30.7448 12C31.4274 11.456 32.2274 11.184 33.1448 11.184C33.8914 11.184 34.4994 11.36 34.9688 11.712L34.6808 14.976C34.6274 15.1893 34.5421 15.3387 34.4248 15.424C34.3181 15.4987 34.1688 15.536 33.9768 15.536C33.8061 15.536 33.5608 15.5147 33.2408 15.472C32.9208 15.4187 32.6221 15.392 32.3448 15.392C31.9394 15.392 31.5768 15.4507 31.2568 15.568C30.9474 15.6853 30.6701 15.8507 30.4248 16.064C30.1794 16.2773 29.9554 16.5387 29.7528 16.848C29.5608 17.1573 29.3794 17.5093 29.2088 17.904V28H24.7928V11.504H27.4008C27.8488 11.504 28.1581 11.584 28.3288 11.744C28.4994 11.904 28.6221 12.1813 28.6968 12.576L28.9368 14.224ZM46.9443 17.808C46.9443 17.3493 46.8803 16.912 46.7523 16.496C46.6349 16.08 46.4429 15.712 46.1763 15.392C45.9096 15.072 45.5736 14.8213 45.1683 14.64C44.7629 14.448 44.2776 14.352 43.7123 14.352C42.6563 14.352 41.8296 14.6507 41.2323 15.248C40.6349 15.8453 40.2456 16.6987 40.0643 17.808H46.9443ZM40.0003 20.432C40.1389 21.9787 40.5763 23.1093 41.3123 23.824C42.0589 24.5387 43.0296 24.896 44.2243 24.896C44.8323 24.896 45.3549 24.8267 45.7923 24.688C46.2403 24.5387 46.6296 24.3787 46.9603 24.208C47.3016 24.0267 47.6056 23.8667 47.8723 23.728C48.1496 23.5787 48.4216 23.504 48.6883 23.504C49.0296 23.504 49.2963 23.632 49.4883 23.888L50.7683 25.488C50.2989 26.032 49.7816 26.4853 49.2163 26.848C48.6509 27.2 48.0643 27.4827 47.4563 27.696C46.8483 27.8987 46.2349 28.0373 45.6163 28.112C44.9976 28.1973 44.4003 28.24 43.8243 28.24C42.6723 28.24 41.5949 28.0533 40.5923 27.68C39.6003 27.296 38.7309 26.736 37.9843 26C37.2483 25.2533 36.6669 24.3307 36.2403 23.232C35.8136 22.1333 35.6003 20.8587 35.6003 19.408C35.6003 18.288 35.7816 17.232 36.1443 16.24C36.5176 15.248 37.0509 14.384 37.7443 13.648C38.4376 12.912 39.2803 12.3307 40.2723 11.904C41.2643 11.4667 42.3843 11.248 43.6323 11.248C44.6883 11.248 45.6589 11.4187 46.5443 11.76C47.4403 12.0907 48.2083 12.576 48.8483 13.216C49.4989 13.856 50.0003 14.6453 50.3523 15.584C50.7149 16.512 50.8963 17.5733 50.8963 18.768C50.8963 19.0987 50.8803 19.3707 50.8483 19.584C50.8163 19.7973 50.7629 19.968 50.6883 20.096C50.6136 20.224 50.5123 20.3147 50.3843 20.368C50.2563 20.4107 50.0909 20.432 49.8883 20.432H40.0003ZM64.1005 17.808C64.1005 17.3493 64.0365 16.912 63.9085 16.496C63.7912 16.08 63.5992 15.712 63.3325 15.392C63.0658 15.072 62.7298 14.8213 62.3245 14.64C61.9192 14.448 61.4338 14.352 60.8685 14.352C59.8125 14.352 58.9858 14.6507 58.3885 15.248C57.7912 15.8453 57.4018 16.6987 57.2205 17.808H64.1005ZM57.1565 20.432C57.2952 21.9787 57.7325 23.1093 58.4685 23.824C59.2152 24.5387 60.1858 24.896 61.3805 24.896C61.9885 24.896 62.5112 24.8267 62.9485 24.688C63.3965 24.5387 63.7858 24.3787 64.1165 24.208C64.4578 24.0267 64.7618 23.8667 65.0285 23.728C65.3058 23.5787 65.5778 23.504 65.8445 23.504C66.1858 23.504 66.4525 23.632 66.6445 23.888L67.9245 25.488C67.4552 26.032 66.9378 26.4853 66.3725 26.848C65.8072 27.2 65.2205 27.4827 64.6125 27.696C64.0045 27.8987 63.3912 28.0373 62.7725 28.112C62.1538 28.1973 61.5565 28.24 60.9805 28.24C59.8285 28.24 58.7512 28.0533 57.7485 27.68C56.7565 27.296 55.8872 26.736 55.1405 26C54.4045 25.2533 53.8232 24.3307 53.3965 23.232C52.9698 22.1333 52.7565 20.8587 52.7565 19.408C52.7565 18.288 52.9378 17.232 53.3005 16.24C53.6738 15.248 54.2072 14.384 54.9005 13.648C55.5938 12.912 56.4365 12.3307 57.4285 11.904C58.4205 11.4667 59.5405 11.248 60.7885 11.248C61.8445 11.248 62.8152 11.4187 63.7005 11.76C64.5965 12.0907 65.3645 12.576 66.0045 13.216C66.6552 13.856 67.1565 14.6453 67.5085 15.584C67.8712 16.512 68.0525 17.5733 68.0525 18.768C68.0525 19.0987 68.0365 19.3707 68.0045 19.584C67.9725 19.7973 67.9192 19.968 67.8445 20.096C67.7698 20.224 67.6685 20.3147 67.5405 20.368C67.4125 20.4107 67.2472 20.432 67.0445 20.432H57.1565ZM74.8888 13.424C75.2194 13.104 75.5608 12.8107 75.9128 12.544C76.2754 12.2773 76.6541 12.048 77.0487 11.856C77.4541 11.664 77.8861 11.5147 78.3448 11.408C78.8141 11.3013 79.3208 11.248 79.8648 11.248C80.7608 11.248 81.5554 11.4027 82.2488 11.712C82.9421 12.0213 83.5234 12.4533 83.9928 13.008C84.4728 13.5627 84.8301 14.224 85.0648 14.992C85.3101 15.76 85.4328 16.6027 85.4328 17.52V28H81.0328V17.52C81.0328 16.6027 80.8194 15.8933 80.3928 15.392C79.9661 14.88 79.3368 14.624 78.5048 14.624C77.8861 14.624 77.3048 14.7573 76.7608 15.024C76.2168 15.2907 75.6994 15.664 75.2088 16.144V28H70.7928V11.504H73.5128C74.0674 11.504 74.4354 11.76 74.6168 12.272L74.8888 13.424ZM100.572 16.176H108.54V25.76C107.356 26.624 106.092 27.2587 104.748 27.664C103.414 28.0587 102.001 28.256 100.508 28.256C98.5984 28.256 96.8704 27.9627 95.3238 27.376C93.7771 26.7787 92.4544 25.952 91.3558 24.896C90.2571 23.84 89.4091 22.5867 88.8118 21.136C88.2144 19.6853 87.9158 18.1013 87.9158 16.384C87.9158 14.6453 88.1984 13.0507 88.7638 11.6C89.3398 10.1493 90.1558 8.90133 91.2118 7.856C92.2678 6.81067 93.5424 5.99467 95.0358 5.408C96.5398 4.82133 98.2198 4.528 100.076 4.528C101.036 4.528 101.932 4.608 102.764 4.768C103.596 4.91733 104.364 5.13067 105.068 5.408C105.772 5.67467 106.417 5.99467 107.004 6.368C107.59 6.74133 108.124 7.152 108.604 7.6L107.212 9.744C106.998 10.0853 106.721 10.2933 106.38 10.368C106.038 10.4427 105.665 10.3573 105.26 10.112C104.876 9.87733 104.497 9.66933 104.124 9.488C103.761 9.296 103.372 9.13067 102.956 8.992C102.54 8.85333 102.086 8.74667 101.596 8.672C101.105 8.59733 100.54 8.56 99.8998 8.56C98.8224 8.56 97.8464 8.74667 96.9718 9.12C96.0971 9.49333 95.3504 10.0213 94.7318 10.704C94.1238 11.3867 93.6544 12.208 93.3238 13.168C92.9931 14.128 92.8278 15.2 92.8278 16.384C92.8278 17.664 93.0091 18.8107 93.3718 19.824C93.7344 20.8267 94.2464 21.6747 94.9078 22.368C95.5691 23.0613 96.3584 23.5893 97.2758 23.952C98.2038 24.3147 99.2331 24.496 100.364 24.496C101.132 24.496 101.814 24.4213 102.412 24.272C103.02 24.112 103.612 23.8987 104.188 23.632V19.728H101.564C101.254 19.728 101.009 19.648 100.828 19.488C100.657 19.3173 100.572 19.104 100.572 18.848V16.176ZM120.448 21.104C119.371 21.1573 118.475 21.2533 117.76 21.392C117.045 21.52 116.475 21.6907 116.048 21.904C115.632 22.1173 115.333 22.3627 115.152 22.64C114.981 22.9067 114.896 23.2 114.896 23.52C114.896 24.16 115.072 24.6133 115.424 24.88C115.787 25.1467 116.288 25.28 116.928 25.28C117.664 25.28 118.299 25.152 118.832 24.896C119.376 24.6293 119.915 24.2187 120.448 23.664V21.104ZM111.456 13.792C112.427 12.9173 113.499 12.2667 114.672 11.84C115.845 11.4027 117.115 11.184 118.48 11.184C119.461 11.184 120.336 11.344 121.104 11.664C121.883 11.984 122.539 12.432 123.072 13.008C123.616 13.5733 124.032 14.2507 124.32 15.04C124.608 15.8293 124.752 16.6933 124.752 17.632V28H122.736C122.32 28 122 27.9413 121.776 27.824C121.563 27.7067 121.387 27.4613 121.248 27.088L120.896 26.032C120.48 26.3947 120.075 26.7147 119.68 26.992C119.296 27.2693 118.896 27.504 118.48 27.696C118.064 27.8773 117.616 28.016 117.136 28.112C116.667 28.208 116.139 28.256 115.552 28.256C114.827 28.256 114.165 28.16 113.568 27.968C112.971 27.776 112.453 27.4933 112.016 27.12C111.589 26.736 111.259 26.2613 111.024 25.696C110.789 25.1307 110.672 24.48 110.672 23.744C110.672 23.136 110.827 22.528 111.136 21.92C111.445 21.312 111.973 20.7627 112.72 20.272C113.477 19.7707 114.48 19.36 115.728 19.04C116.987 18.7093 118.56 18.5227 120.448 18.48V17.632C120.448 16.5973 120.229 15.84 119.792 15.36C119.355 14.8693 118.725 14.624 117.904 14.624C117.296 14.624 116.789 14.6987 116.384 14.848C115.979 14.9867 115.621 15.1413 115.312 15.312C115.013 15.472 114.731 15.6267 114.464 15.776C114.197 15.9147 113.888 15.984 113.536 15.984C113.227 15.984 112.965 15.9093 112.752 15.76C112.549 15.6 112.379 15.4133 112.24 15.2L111.456 13.792ZM132.343 14.224C132.866 13.2853 133.468 12.544 134.151 12C134.834 11.456 135.634 11.184 136.551 11.184C137.298 11.184 137.906 11.36 138.375 11.712L138.087 14.976C138.034 15.1893 137.948 15.3387 137.831 15.424C137.724 15.4987 137.575 15.536 137.383 15.536C137.212 15.536 136.967 15.5147 136.647 15.472C136.327 15.4187 136.028 15.392 135.751 15.392C135.346 15.392 134.983 15.4507 134.663 15.568C134.354 15.6853 134.076 15.8507 133.831 16.064C133.586 16.2773 133.362 16.5387 133.159 16.848C132.967 17.1573 132.786 17.5093 132.615 17.904V28H128.199V11.504H130.807C131.255 11.504 131.564 11.584 131.735 11.744C131.906 11.904 132.028 12.1813 132.103 12.576L132.343 14.224ZM150.11 15.792C149.694 15.312 149.24 14.976 148.75 14.784C148.27 14.592 147.758 14.496 147.214 14.496C146.68 14.496 146.195 14.5973 145.758 14.8C145.32 15.0027 144.942 15.3227 144.622 15.76C144.312 16.1867 144.072 16.736 143.902 17.408C143.731 18.08 143.646 18.88 143.646 19.808C143.646 20.7253 143.715 21.504 143.854 22.144C143.992 22.784 144.19 23.3013 144.446 23.696C144.712 24.0907 145.032 24.3787 145.406 24.56C145.779 24.7307 146.195 24.816 146.654 24.816C147.432 24.816 148.083 24.6613 148.606 24.352C149.139 24.0427 149.64 23.6053 150.11 23.04V15.792ZM154.526 4.144V28H151.806C151.24 28 150.878 27.744 150.718 27.232L150.35 25.792C150.019 26.1547 149.667 26.4853 149.294 26.784C148.931 27.0827 148.536 27.344 148.11 27.568C147.683 27.7813 147.224 27.9467 146.734 28.064C146.243 28.1813 145.71 28.24 145.134 28.24C144.248 28.24 143.438 28.0533 142.702 27.68C141.966 27.3067 141.326 26.7627 140.782 26.048C140.248 25.3227 139.832 24.4373 139.534 23.392C139.235 22.3467 139.086 21.152 139.086 19.808C139.086 18.5813 139.251 17.44 139.582 16.384C139.923 15.328 140.403 14.416 141.022 13.648C141.64 12.88 142.387 12.2773 143.262 11.84C144.136 11.4027 145.107 11.184 146.174 11.184C147.07 11.184 147.822 11.3173 148.43 11.584C149.048 11.8507 149.608 12.2133 150.11 12.672V4.144H154.526ZM168.663 17.808C168.663 17.3493 168.599 16.912 168.471 16.496C168.354 16.08 168.162 15.712 167.895 15.392C167.628 15.072 167.292 14.8213 166.887 14.64C166.482 14.448 165.996 14.352 165.431 14.352C164.375 14.352 163.548 14.6507 162.951 15.248C162.354 15.8453 161.964 16.6987 161.783 17.808H168.663ZM161.719 20.432C161.858 21.9787 162.295 23.1093 163.031 23.824C163.778 24.5387 164.748 24.896 165.943 24.896C166.551 24.896 167.074 24.8267 167.511 24.688C167.959 24.5387 168.348 24.3787 168.679 24.208C169.02 24.0267 169.324 23.8667 169.591 23.728C169.868 23.5787 170.14 23.504 170.407 23.504C170.748 23.504 171.015 23.632 171.207 23.888L172.487 25.488C172.018 26.032 171.5 26.4853 170.935 26.848C170.37 27.2 169.783 27.4827 169.175 27.696C168.567 27.8987 167.954 28.0373 167.335 28.112C166.716 28.1973 166.119 28.24 165.543 28.24C164.391 28.24 163.314 28.0533 162.311 27.68C161.319 27.296 160.45 26.736 159.703 26C158.967 25.2533 158.386 24.3307 157.959 23.232C157.532 22.1333 157.319 20.8587 157.319 19.408C157.319 18.288 157.5 17.232 157.863 16.24C158.236 15.248 158.77 14.384 159.463 13.648C160.156 12.912 160.999 12.3307 161.991 11.904C162.983 11.4667 164.103 11.248 165.351 11.248C166.407 11.248 167.378 11.4187 168.263 11.76C169.159 12.0907 169.927 12.576 170.567 13.216C171.218 13.856 171.719 14.6453 172.071 15.584C172.434 16.512 172.615 17.5733 172.615 18.768C172.615 19.0987 172.599 19.3707 172.567 19.584C172.535 19.7973 172.482 19.968 172.407 20.096C172.332 20.224 172.231 20.3147 172.103 20.368C171.975 20.4107 171.81 20.432 171.607 20.432H161.719ZM179.451 13.424C179.782 13.104 180.123 12.8107 180.475 12.544C180.838 12.2773 181.217 12.048 181.611 11.856C182.017 11.664 182.449 11.5147 182.907 11.408C183.377 11.3013 183.883 11.248 184.427 11.248C185.323 11.248 186.118 11.4027 186.811 11.712C187.505 12.0213 188.086 12.4533 188.555 13.008C189.035 13.5627 189.393 14.224 189.627 14.992C189.873 15.76 189.995 16.6027 189.995 17.52V28H185.595V17.52C185.595 16.6027 185.382 15.8933 184.955 15.392C184.529 14.88 183.899 14.624 183.067 14.624C182.449 14.624 181.867 14.7573 181.323 15.024C180.779 15.2907 180.262 15.664 179.771 16.144V28H175.355V11.504H178.075C178.63 11.504 178.998 11.76 179.179 12.272L179.451 13.424Z" fill="#C29216"/>
<path d="M7.43979 44.6795C7.54812 44.6795 7.63912 44.7185 7.71279 44.7965L8.48629 45.622C8.10495 46.1073 7.63045 46.4757 7.06279 46.727C6.49945 46.9783 5.82779 47.104 5.04779 47.104C4.34145 47.104 3.70662 46.9848 3.14329 46.7465C2.57995 46.5038 2.10112 46.168 1.70679 45.739C1.31245 45.31 1.00912 44.8008 0.796785 44.2115C0.584452 43.6222 0.478285 42.9787 0.478285 42.281C0.478285 41.813 0.528119 41.3688 0.627785 40.9485C0.731785 40.5238 0.881285 40.1338 1.07629 39.7785C1.27129 39.4232 1.50529 39.1025 1.77829 38.8165C2.05562 38.5305 2.36762 38.2878 2.71429 38.0885C3.06095 37.8848 3.43795 37.731 3.84529 37.627C4.25695 37.5187 4.69462 37.4645 5.15829 37.4645C5.50495 37.4645 5.83212 37.4948 6.13979 37.5555C6.45179 37.6162 6.74212 37.7007 7.01079 37.809C7.27945 37.9173 7.52645 38.0495 7.75179 38.2055C7.98145 38.3572 8.18729 38.524 8.36929 38.706L7.71279 39.603C7.67379 39.6593 7.62395 39.7092 7.56329 39.7525C7.50262 39.7958 7.42029 39.8175 7.31629 39.8175C7.21229 39.8175 7.10612 39.7807 6.99779 39.707C6.89379 39.6333 6.76379 39.551 6.60779 39.46C6.45612 39.369 6.26329 39.2867 6.02929 39.213C5.79962 39.1393 5.50712 39.1025 5.15179 39.1025C4.75745 39.1025 4.39562 39.174 4.06629 39.317C3.73695 39.46 3.45312 39.668 3.21479 39.941C2.98079 40.2097 2.79879 40.5412 2.66879 40.9355C2.53879 41.3298 2.47379 41.7783 2.47379 42.281C2.47379 42.788 2.54312 43.2408 2.68179 43.6395C2.82479 44.0338 3.01762 44.3675 3.26029 44.6405C3.50729 44.9135 3.79329 45.1215 4.11829 45.2645C4.44762 45.4032 4.79862 45.4725 5.17129 45.4725C5.39229 45.4725 5.59162 45.4617 5.76929 45.44C5.95129 45.4183 6.11812 45.3815 6.26979 45.3295C6.42579 45.2775 6.57095 45.2103 6.70529 45.128C6.84395 45.0457 6.98262 44.9417 7.12129 44.816C7.16895 44.777 7.21879 44.7445 7.27079 44.7185C7.32279 44.6925 7.37912 44.6795 7.43979 44.6795ZM14.834 41.605H12.52V47H10.726V41.605H8.41204V40.2985H14.834V41.605ZM21.9272 40.2985L18.3132 48.8005C18.2568 48.9218 18.1875 49.0128 18.1052 49.0735C18.0272 49.1342 17.9015 49.1645 17.7282 49.1645H16.3957L17.6632 46.4605L14.9722 40.2985H16.5452C16.6882 40.2985 16.7987 40.331 16.8767 40.396C16.9547 40.461 17.011 40.5368 17.0457 40.6235L18.3197 43.828C18.3673 43.9537 18.4085 44.0815 18.4432 44.2115C18.4822 44.3372 18.519 44.4628 18.5537 44.5885C18.6317 44.3328 18.7205 44.0772 18.8202 43.8215L20.0032 40.6235C20.0378 40.5282 20.1007 40.4502 20.1917 40.3895C20.2827 40.3288 20.3823 40.2985 20.4907 40.2985H21.9272ZM26.3982 45.7455V41.644H24.9357C24.8967 42.164 24.8468 42.6363 24.7862 43.061C24.7255 43.4857 24.654 43.867 24.5717 44.205C24.4893 44.5387 24.3983 44.8333 24.2987 45.089C24.2033 45.3403 24.1015 45.5592 23.9932 45.7455H26.3982ZM29.3687 45.6935V48.703C29.3687 48.8633 29.321 48.989 29.2257 49.08C29.1303 49.1753 29.009 49.223 28.8617 49.223H27.7372V47H22.9727V48.729C22.9727 48.8547 22.9337 48.9673 22.8557 49.067C22.7777 49.171 22.652 49.223 22.4787 49.223H21.3477V45.7455H21.5232C21.6705 45.7455 21.8157 45.7282 21.9587 45.6935C22.1017 45.6545 22.2382 45.5743 22.3682 45.453C22.4982 45.3273 22.6195 45.1453 22.7322 44.907C22.8492 44.6643 22.9553 44.3415 23.0507 43.9385C23.146 43.5355 23.2283 43.0372 23.2977 42.4435C23.3713 41.8498 23.4298 41.1348 23.4732 40.2985H28.1337V45.6935H29.3687ZM36.4361 40.2985V47H34.6421V43.3145C34.6421 43.2148 34.6464 43.1022 34.6551 42.9765C34.6681 42.8465 34.6854 42.7187 34.7071 42.593C34.6074 42.8097 34.5056 42.9938 34.4016 43.1455C34.3929 43.1542 34.3539 43.2105 34.2846 43.3145C34.2152 43.4185 34.1242 43.5528 34.0116 43.7175C33.8989 43.8778 33.7711 44.0598 33.6281 44.2635C33.4894 44.4672 33.3464 44.6752 33.1991 44.8875C32.8567 45.3815 32.4689 45.9427 32.0356 46.571C32.0009 46.623 31.9597 46.675 31.9121 46.727C31.8687 46.7747 31.8189 46.8202 31.7626 46.8635C31.7106 46.9068 31.6542 46.9415 31.5936 46.9675C31.5329 46.9935 31.4679 47.0065 31.3986 47.0065H30.3001V40.305H32.0941V43.9905C32.0941 44.0945 32.0876 44.2115 32.0746 44.3415C32.0616 44.4715 32.0442 44.5993 32.0226 44.725C32.0746 44.6123 32.1266 44.5083 32.1786 44.413C32.2306 44.3177 32.2826 44.2332 32.3346 44.1595C32.3389 44.1508 32.3757 44.0945 32.4451 43.9905C32.5187 43.8865 32.6119 43.7543 32.7246 43.594C32.8372 43.4293 32.9629 43.2452 33.1016 43.0415C33.2446 42.8378 33.3897 42.6298 33.5371 42.4175C33.8794 41.9235 34.2694 41.3623 34.7071 40.734C34.7721 40.63 34.8587 40.5325 34.9671 40.4415C35.0797 40.3462 35.2054 40.2985 35.3441 40.2985H36.4361ZM41.414 43.2755V41.4425H40.6405C40.4585 41.4425 40.3046 41.4707 40.179 41.527C40.0576 41.579 39.958 41.6483 39.88 41.735C39.8063 41.8217 39.7543 41.9192 39.724 42.0275C39.6936 42.1358 39.6785 42.2442 39.6785 42.3525C39.6785 42.6385 39.7695 42.8638 39.9515 43.0285C40.1378 43.1932 40.3805 43.2755 40.6795 43.2755H41.414ZM43.117 40.2985V47H41.414V44.361H41.232C41.0976 44.361 40.9871 44.374 40.9005 44.4C40.8138 44.4217 40.7401 44.4563 40.6795 44.504C40.6231 44.5473 40.5755 44.5993 40.5365 44.66C40.4975 44.7207 40.4563 44.7878 40.413 44.8615L39.4965 46.3955C39.4401 46.4952 39.3795 46.584 39.3145 46.662C39.2538 46.7357 39.1801 46.7985 39.0935 46.8505C39.0111 46.8982 38.9115 46.935 38.7945 46.961C38.6818 46.987 38.5453 47 38.385 47H37.15L38.736 44.6925C38.8356 44.5192 38.9505 44.3783 39.0805 44.27C39.2148 44.1573 39.373 44.0707 39.555 44.01C39.2473 43.9537 38.9851 43.8648 38.7685 43.7435C38.5561 43.6178 38.3828 43.477 38.2485 43.321C38.1185 43.1607 38.0231 42.9917 37.9625 42.814C37.9061 42.632 37.878 42.4543 37.878 42.281C37.878 42.0297 37.9278 41.7848 38.0275 41.5465C38.1315 41.3082 38.2918 41.098 38.5085 40.916C38.7251 40.7297 39.0046 40.5802 39.347 40.4675C39.6936 40.3548 40.1075 40.2985 40.5885 40.2985H43.117ZM54.0562 47H52.2622V41.644H50.8127C50.7563 42.4587 50.674 43.1585 50.5657 43.7435C50.4573 44.3285 50.3273 44.8247 50.1757 45.232C50.024 45.635 49.855 45.96 49.6687 46.207C49.4823 46.4497 49.283 46.6382 49.0707 46.7725C48.8583 46.9025 48.6395 46.9892 48.4142 47.0325C48.1888 47.0758 47.9613 47.0975 47.7317 47.0975C47.463 47.0975 47.2702 47.0758 47.1532 47.0325C47.0362 46.9892 46.9777 46.9263 46.9777 46.844V45.752H47.3807C47.5193 45.752 47.658 45.7325 47.7967 45.6935C47.9353 45.6502 48.0697 45.5635 48.1997 45.4335C48.334 45.3035 48.4597 45.1172 48.5767 44.8745C48.6937 44.6318 48.802 44.309 48.9017 43.906C49.0013 43.503 49.088 43.0068 49.1617 42.4175C49.2353 41.8282 49.2938 41.1218 49.3372 40.2985H54.0562V47ZM59.0419 44.1985C58.6042 44.2202 58.2402 44.2592 57.9499 44.3155C57.6595 44.3675 57.4277 44.4368 57.2544 44.5235C57.0854 44.6102 56.964 44.7098 56.8904 44.8225C56.821 44.9308 56.7864 45.05 56.7864 45.18C56.7864 45.44 56.8579 45.6242 57.0009 45.7325C57.1482 45.8408 57.3519 45.895 57.6119 45.895C57.9109 45.895 58.1687 45.843 58.3854 45.739C58.6064 45.6307 58.8252 45.4638 59.0419 45.2385V44.1985ZM55.3889 41.228C55.7832 40.8727 56.2187 40.6083 56.6954 40.435C57.172 40.2573 57.6877 40.1685 58.2424 40.1685C58.641 40.1685 58.9964 40.2335 59.3084 40.3635C59.6247 40.4935 59.8912 40.6755 60.1079 40.9095C60.3289 41.1392 60.4979 41.4143 60.6149 41.735C60.7319 42.0557 60.7904 42.4067 60.7904 42.788V47H59.9714C59.8024 47 59.6724 46.9762 59.5814 46.9285C59.4947 46.8808 59.4232 46.7812 59.3669 46.6295L59.2239 46.2005C59.0549 46.3478 58.8902 46.4778 58.7299 46.5905C58.5739 46.7032 58.4114 46.7985 58.2424 46.8765C58.0734 46.9502 57.8914 47.0065 57.6964 47.0455C57.5057 47.0845 57.2912 47.104 57.0529 47.104C56.7582 47.104 56.4895 47.065 56.2469 46.987C56.0042 46.909 55.794 46.7942 55.6164 46.6425C55.443 46.4865 55.3087 46.2937 55.2134 46.064C55.118 45.8343 55.0704 45.57 55.0704 45.271C55.0704 45.024 55.1332 44.777 55.2589 44.53C55.3845 44.283 55.599 44.0598 55.9024 43.8605C56.21 43.6568 56.6174 43.49 57.1244 43.36C57.6357 43.2257 58.2749 43.1498 59.0419 43.1325V42.788C59.0419 42.3677 58.953 42.06 58.7754 41.865C58.5977 41.6657 58.342 41.566 58.0084 41.566C57.7614 41.566 57.5555 41.5963 57.3909 41.657C57.2262 41.7133 57.081 41.7762 56.9554 41.8455C56.834 41.9105 56.7192 41.9733 56.6109 42.034C56.5025 42.0903 56.3769 42.1185 56.2339 42.1185C56.1082 42.1185 56.002 42.0882 55.9154 42.0275C55.833 41.9625 55.7637 41.8867 55.7074 41.8L55.3889 41.228ZM68.1382 40.2985V47H66.3507V44.0945H63.9847V47H62.1907V40.2985H63.9847V42.788H66.3507V40.2985H68.1382ZM74.0437 45.7455V41.644H72.5812C72.5422 42.164 72.4923 42.6363 72.4317 43.061C72.371 43.4857 72.2995 43.867 72.2172 44.205C72.1348 44.5387 72.0438 44.8333 71.9442 45.089C71.8488 45.3403 71.747 45.5592 71.6387 45.7455H74.0437ZM77.0142 45.6935V48.703C77.0142 48.8633 76.9665 48.989 76.8712 49.08C76.7758 49.1753 76.6545 49.223 76.5072 49.223H75.3827V47H70.6182V48.729C70.6182 48.8547 70.5792 48.9673 70.5012 49.067C70.4232 49.171 70.2975 49.223 70.1242 49.223H68.9932V45.7455H69.1687C69.316 45.7455 69.4612 45.7282 69.6042 45.6935C69.7472 45.6545 69.8837 45.5743 70.0137 45.453C70.1437 45.3273 70.265 45.1453 70.3777 44.907C70.4947 44.6643 70.6008 44.3415 70.6962 43.9385C70.7915 43.5355 70.8738 43.0372 70.9432 42.4435C71.0168 41.8498 71.0753 41.1348 71.1187 40.2985H75.7792V45.6935H77.0142ZM87.3186 40.2985V47H77.9456V40.2985H79.7396V45.6935H81.7416V40.2985H83.5291V45.6935H85.5311V40.2985H87.3186ZM92.3163 44.1985C91.8786 44.2202 91.5146 44.2592 91.2243 44.3155C90.9339 44.3675 90.7021 44.4368 90.5288 44.5235C90.3598 44.6102 90.2384 44.7098 90.1648 44.8225C90.0954 44.9308 90.0608 45.05 90.0608 45.18C90.0608 45.44 90.1323 45.6242 90.2753 45.7325C90.4226 45.8408 90.6263 45.895 90.8863 45.895C91.1853 45.895 91.4431 45.843 91.6598 45.739C91.8808 45.6307 92.0996 45.4638 92.3163 45.2385V44.1985ZM88.6633 41.228C89.0576 40.8727 89.4931 40.6083 89.9698 40.435C90.4464 40.2573 90.9621 40.1685 91.5168 40.1685C91.9154 40.1685 92.2708 40.2335 92.5828 40.3635C92.8991 40.4935 93.1656 40.6755 93.3823 40.9095C93.6033 41.1392 93.7723 41.4143 93.8893 41.735C94.0063 42.0557 94.0648 42.4067 94.0648 42.788V47H93.2458C93.0768 47 92.9468 46.9762 92.8558 46.9285C92.7691 46.8808 92.6976 46.7812 92.6413 46.6295L92.4983 46.2005C92.3293 46.3478 92.1646 46.4778 92.0043 46.5905C91.8483 46.7032 91.6858 46.7985 91.5168 46.8765C91.3478 46.9502 91.1658 47.0065 90.9708 47.0455C90.7801 47.0845 90.5656 47.104 90.3273 47.104C90.0326 47.104 89.7639 47.065 89.5213 46.987C89.2786 46.909 89.0684 46.7942 88.8908 46.6425C88.7174 46.4865 88.5831 46.2937 88.4878 46.064C88.3924 45.8343 88.3448 45.57 88.3448 45.271C88.3448 45.024 88.4076 44.777 88.5333 44.53C88.6589 44.283 88.8734 44.0598 89.1768 43.8605C89.4844 43.6568 89.8918 43.49 90.3988 43.36C90.9101 43.2257 91.5493 43.1498 92.3163 43.1325V42.788C92.3163 42.3677 92.2274 42.06 92.0498 41.865C91.8721 41.6657 91.6164 41.566 91.2828 41.566C91.0358 41.566 90.8299 41.5963 90.6653 41.657C90.5006 41.7133 90.3554 41.7762 90.2298 41.8455C90.1084 41.9105 89.9936 41.9733 89.8853 42.034C89.7769 42.0903 89.6513 42.1185 89.5083 42.1185C89.3826 42.1185 89.2764 42.0882 89.1898 42.0275C89.1074 41.9625 89.0381 41.8867 88.9818 41.8L88.6633 41.228ZM100.327 45.791C100.617 45.765 100.88 45.6978 101.114 45.5895C101.348 45.4812 101.545 45.3382 101.705 45.1605C101.87 44.9785 101.995 44.7618 102.082 44.5105C102.169 44.2548 102.212 43.9667 102.212 43.646C102.212 43.3297 102.169 43.0458 102.082 42.7945C101.995 42.5388 101.87 42.32 101.705 42.138C101.545 41.956 101.348 41.8108 101.114 41.7025C100.88 41.5942 100.617 41.527 100.327 41.501V45.791ZM98.7671 41.501C98.4768 41.527 98.2146 41.5942 97.9806 41.7025C97.7466 41.8108 97.5473 41.956 97.3826 42.138C97.2223 42.32 97.0988 42.5388 97.0121 42.7945C96.9255 43.0458 96.8821 43.3297 96.8821 43.646C96.8821 43.9667 96.9255 44.2548 97.0121 44.5105C97.0988 44.7618 97.2223 44.9785 97.3826 45.1605C97.5473 45.3425 97.7466 45.4877 97.9806 45.596C98.2146 45.7 98.4768 45.765 98.7671 45.791V41.501ZM100.386 40.2075C100.919 40.2422 101.406 40.3462 101.848 40.5195C102.29 40.6885 102.669 40.9203 102.986 41.215C103.306 41.5097 103.555 41.8628 103.733 42.2745C103.911 42.6818 104 43.1368 104 43.6395C104 44.1465 103.911 44.6058 103.733 45.0175C103.555 45.4248 103.306 45.7758 102.986 46.0705C102.669 46.3652 102.29 46.6013 101.848 46.779C101.406 46.9523 100.919 47.0542 100.386 47.0845V49.223H98.7086V47.0845C98.1756 47.0542 97.6881 46.9523 97.2461 46.779C96.8041 46.6057 96.4228 46.3717 96.1021 46.077C95.7858 45.778 95.5388 45.4248 95.3611 45.0175C95.1835 44.6058 95.0946 44.1465 95.0946 43.6395C95.0946 43.1368 95.1835 42.6818 95.3611 42.2745C95.5388 41.8628 95.7858 41.5097 96.1021 41.215C96.4228 40.9203 96.8041 40.6863 97.2461 40.513C97.6881 40.3397 98.1756 40.2378 98.7086 40.2075V37.5685H100.386V40.2075ZM110.785 41.605H108.471V47H106.677V41.605H104.363V40.2985H110.785V41.605ZM117.612 40.2985V47H115.824V44.0945H113.458V47H111.664V40.2985H113.458V42.788H115.824V40.2985H117.612ZM122.126 40.1945C122.629 40.1945 123.086 40.2747 123.498 40.435C123.909 40.5953 124.263 40.825 124.557 41.124C124.852 41.4187 125.079 41.7783 125.24 42.203C125.4 42.6277 125.48 43.1065 125.48 43.6395C125.48 44.1725 125.4 44.6535 125.24 45.0825C125.079 45.5072 124.852 45.869 124.557 46.168C124.263 46.467 123.909 46.6967 123.498 46.857C123.086 47.0173 122.629 47.0975 122.126 47.0975C121.619 47.0975 121.158 47.0173 120.742 46.857C120.33 46.6967 119.977 46.467 119.682 46.168C119.388 45.869 119.158 45.5072 118.993 45.0825C118.833 44.6535 118.753 44.1725 118.753 43.6395C118.753 43.1065 118.833 42.6277 118.993 42.203C119.158 41.7783 119.388 41.4187 119.682 41.124C119.977 40.825 120.33 40.5953 120.742 40.435C121.158 40.2747 121.619 40.1945 122.126 40.1945ZM122.126 45.752C122.638 45.752 123.017 45.5765 123.264 45.2255C123.511 44.8702 123.634 44.3437 123.634 43.646C123.634 42.9527 123.511 42.4305 123.264 42.0795C123.017 41.7242 122.638 41.5465 122.126 41.5465C121.602 41.5465 121.216 41.7242 120.969 42.0795C120.722 42.4305 120.599 42.9527 120.599 43.646C120.599 44.3437 120.722 44.8702 120.969 45.2255C121.216 45.5765 121.602 45.752 122.126 45.752ZM131.228 41.605H128.401V47H126.607V40.2985H131.228V41.605ZM134.961 40.1945C135.464 40.1945 135.921 40.2747 136.333 40.435C136.744 40.5953 137.098 40.825 137.392 41.124C137.687 41.4187 137.914 41.7783 138.075 42.203C138.235 42.6277 138.315 43.1065 138.315 43.6395C138.315 44.1725 138.235 44.6535 138.075 45.0825C137.914 45.5072 137.687 45.869 137.392 46.168C137.098 46.467 136.744 46.6967 136.333 46.857C135.921 47.0173 135.464 47.0975 134.961 47.0975C134.454 47.0975 133.993 47.0173 133.577 46.857C133.165 46.6967 132.812 46.467 132.517 46.168C132.223 45.869 131.993 45.5072 131.828 45.0825C131.668 44.6535 131.588 44.1725 131.588 43.6395C131.588 43.1065 131.668 42.6277 131.828 42.203C131.993 41.7783 132.223 41.4187 132.517 41.124C132.812 40.825 133.165 40.5953 133.577 40.435C133.993 40.2747 134.454 40.1945 134.961 40.1945ZM134.961 45.752C135.473 45.752 135.852 45.5765 136.099 45.2255C136.346 44.8702 136.469 44.3437 136.469 43.646C136.469 42.9527 136.346 42.4305 136.099 42.0795C135.852 41.7242 135.473 41.5465 134.961 41.5465C134.437 41.5465 134.051 41.7242 133.804 42.0795C133.557 42.4305 133.434 42.9527 133.434 43.646C133.434 44.3437 133.557 44.8702 133.804 45.2255C134.051 45.5765 134.437 45.752 134.961 45.752ZM146.94 45.7455V41.644H145.478C145.439 42.164 145.389 42.6363 145.328 43.061C145.267 43.4857 145.196 43.867 145.114 44.205C145.031 44.5387 144.94 44.8333 144.841 45.089C144.745 45.3403 144.643 45.5592 144.535 45.7455H146.94ZM149.911 45.6935V48.703C149.911 48.8633 149.863 48.989 149.768 49.08C149.672 49.1753 149.551 49.223 149.404 49.223H148.279V47H143.515V48.729C143.515 48.8547 143.476 48.9673 143.398 49.067C143.32 49.171 143.194 49.223 143.021 49.223H141.89V45.7455H142.065C142.212 45.7455 142.358 45.7282 142.501 45.6935C142.644 45.6545 142.78 45.5743 142.91 45.453C143.04 45.3273 143.161 45.1453 143.274 44.907C143.391 44.6643 143.497 44.3415 143.593 43.9385C143.688 43.5355 143.77 43.0372 143.84 42.4435C143.913 41.8498 143.972 41.1348 144.015 40.2985H148.676V45.6935H149.911ZM156.978 40.2985V47H155.184V43.3145C155.184 43.2148 155.188 43.1022 155.197 42.9765C155.21 42.8465 155.227 42.7187 155.249 42.593C155.149 42.8097 155.048 42.9938 154.944 43.1455C154.935 43.1542 154.896 43.2105 154.827 43.3145C154.757 43.4185 154.666 43.5528 154.554 43.7175C154.441 43.8778 154.313 44.0598 154.17 44.2635C154.031 44.4672 153.888 44.6752 153.741 44.8875C153.399 45.3815 153.011 45.9427 152.578 46.571C152.543 46.623 152.502 46.675 152.454 46.727C152.411 46.7747 152.361 46.8202 152.305 46.8635C152.253 46.9068 152.196 46.9415 152.136 46.9675C152.075 46.9935 152.01 47.0065 151.941 47.0065H150.842V40.305H152.636V43.9905C152.636 44.0945 152.63 44.2115 152.617 44.3415C152.604 44.4715 152.586 44.5993 152.565 44.725C152.617 44.6123 152.669 44.5083 152.721 44.413C152.773 44.3177 152.825 44.2332 152.877 44.1595C152.881 44.1508 152.918 44.0945 152.987 43.9905C153.061 43.8865 153.154 43.7543 153.267 43.594C153.379 43.4293 153.505 43.2452 153.644 43.0415C153.787 42.8378 153.932 42.6298 154.079 42.4175C154.421 41.9235 154.811 41.3623 155.249 40.734C155.314 40.63 155.401 40.5325 155.509 40.4415C155.622 40.3462 155.747 40.2985 155.886 40.2985H156.978ZM158.095 41.0395C158.355 40.7882 158.673 40.5845 159.05 40.4285C159.427 40.2725 159.882 40.1945 160.415 40.1945C160.831 40.1945 161.202 40.2443 161.527 40.344C161.856 40.4437 162.134 40.578 162.359 40.747C162.584 40.9117 162.755 41.1045 162.872 41.3255C162.989 41.5422 163.048 41.7697 163.048 42.008C163.048 42.1337 163.028 42.2637 162.989 42.398C162.955 42.5323 162.896 42.6645 162.814 42.7945C162.732 42.9202 162.623 43.0393 162.489 43.152C162.355 43.2647 162.188 43.36 161.988 43.438C162.339 43.5767 162.623 43.7782 162.84 44.0425C163.061 44.3068 163.171 44.6383 163.171 45.037C163.171 45.3663 163.093 45.6588 162.937 45.9145C162.786 46.1702 162.584 46.3868 162.333 46.5645C162.082 46.7378 161.793 46.87 161.468 46.961C161.148 47.052 160.818 47.0975 160.48 47.0975C160.294 47.0975 160.09 47.0802 159.869 47.0455C159.653 47.0152 159.432 46.9588 159.206 46.8765C158.981 46.7898 158.756 46.675 158.53 46.532C158.309 46.3847 158.104 46.2005 157.913 45.9795L158.433 45.3295C158.511 45.2255 158.619 45.1735 158.758 45.1735C158.866 45.1735 158.966 45.2038 159.057 45.2645C159.148 45.3252 159.25 45.3923 159.362 45.466C159.479 45.5397 159.616 45.6068 159.772 45.6675C159.928 45.7282 160.123 45.7585 160.357 45.7585C160.73 45.7585 161.007 45.6762 161.189 45.5115C161.375 45.3468 161.468 45.1388 161.468 44.8875C161.468 44.6405 161.371 44.4477 161.176 44.309C160.981 44.1703 160.66 44.101 160.214 44.101H159.46V42.9635H160.214C160.608 42.9635 160.907 42.8963 161.111 42.762C161.319 42.6277 161.423 42.4478 161.423 42.2225C161.423 42.0145 161.332 41.8477 161.15 41.722C160.968 41.5963 160.706 41.5335 160.363 41.5335C160.142 41.5335 159.956 41.5573 159.804 41.605C159.653 41.6483 159.521 41.696 159.408 41.748C159.3 41.8 159.204 41.8498 159.122 41.8975C159.044 41.9408 158.968 41.9625 158.894 41.9625C158.812 41.9625 158.741 41.9473 158.68 41.917C158.624 41.8867 158.563 41.8195 158.498 41.7155L158.095 41.0395ZM167.841 44.1985C167.403 44.2202 167.039 44.2592 166.749 44.3155C166.458 44.3675 166.227 44.4368 166.053 44.5235C165.884 44.6102 165.763 44.7098 165.689 44.8225C165.62 44.9308 165.585 45.05 165.585 45.18C165.585 45.44 165.657 45.6242 165.8 45.7325C165.947 45.8408 166.151 45.895 166.411 45.895C166.71 45.895 166.968 45.843 167.184 45.739C167.405 45.6307 167.624 45.4638 167.841 45.2385V44.1985ZM164.188 41.228C164.582 40.8727 165.018 40.6083 165.494 40.435C165.971 40.2573 166.487 40.1685 167.041 40.1685C167.44 40.1685 167.795 40.2335 168.107 40.3635C168.424 40.4935 168.69 40.6755 168.907 40.9095C169.128 41.1392 169.297 41.4143 169.414 41.735C169.531 42.0557 169.589 42.4067 169.589 42.788V47H168.77C168.601 47 168.471 46.9762 168.38 46.9285C168.294 46.8808 168.222 46.7812 168.166 46.6295L168.023 46.2005C167.854 46.3478 167.689 46.4778 167.529 46.5905C167.373 46.7032 167.21 46.7985 167.041 46.8765C166.872 46.9502 166.69 47.0065 166.495 47.0455C166.305 47.0845 166.09 47.104 165.852 47.104C165.557 47.104 165.288 47.065 165.046 46.987C164.803 46.909 164.593 46.7942 164.415 46.6425C164.242 46.4865 164.108 46.2937 164.012 46.064C163.917 45.8343 163.869 45.57 163.869 45.271C163.869 45.024 163.932 44.777 164.058 44.53C164.183 44.283 164.398 44.0598 164.701 43.8605C165.009 43.6568 165.416 43.49 165.923 43.36C166.435 43.2257 167.074 43.1498 167.841 43.1325V42.788C167.841 42.3677 167.752 42.06 167.574 41.865C167.397 41.6657 167.141 41.566 166.807 41.566C166.56 41.566 166.354 41.5963 166.19 41.657C166.025 41.7133 165.88 41.7762 165.754 41.8455C165.633 41.9105 165.518 41.9733 165.41 42.034C165.301 42.0903 165.176 42.1185 165.033 42.1185C164.907 42.1185 164.801 42.0882 164.714 42.0275C164.632 41.9625 164.563 41.8867 164.506 41.8L164.188 41.228ZM177.126 40.2985V47H175.332V43.3145C175.332 43.2148 175.336 43.1022 175.345 42.9765C175.358 42.8465 175.375 42.7187 175.397 42.593C175.297 42.8097 175.195 42.9938 175.091 43.1455C175.082 43.1542 175.043 43.2105 174.974 43.3145C174.905 43.4185 174.814 43.5528 174.701 43.7175C174.588 43.8778 174.461 44.0598 174.318 44.2635C174.179 44.4672 174.036 44.6752 173.889 44.8875C173.546 45.3815 173.158 45.9427 172.725 46.571C172.69 46.623 172.649 46.675 172.602 46.727C172.558 46.7747 172.508 46.8202 172.452 46.8635C172.4 46.9068 172.344 46.9415 172.283 46.9675C172.222 46.9935 172.157 47.0065 172.088 47.0065H170.99V40.305H172.784V43.9905C172.784 44.0945 172.777 44.2115 172.764 44.3415C172.751 44.4715 172.734 44.5993 172.712 44.725C172.764 44.6123 172.816 44.5083 172.868 44.413C172.92 44.3177 172.972 44.2332 173.024 44.1595C173.028 44.1508 173.065 44.0945 173.135 43.9905C173.208 43.8865 173.301 43.7543 173.414 43.594C173.527 43.4293 173.652 43.2452 173.791 43.0415C173.934 42.8378 174.079 42.6298 174.227 42.4175C174.569 41.9235 174.959 41.3623 175.397 40.734C175.462 40.63 175.548 40.5325 175.657 40.4415C175.769 40.3462 175.895 40.2985 176.034 40.2985H177.126ZM174.155 38.576C174.311 38.576 174.439 38.5608 174.539 38.5305C174.643 38.4958 174.723 38.4395 174.779 38.3615C174.84 38.2835 174.881 38.1817 174.903 38.056C174.929 37.926 174.942 37.7635 174.942 37.5685H176.001C176.127 37.5685 176.218 37.6205 176.274 37.7245C176.335 37.8285 176.365 37.939 176.365 38.056C176.365 38.2813 176.311 38.485 176.203 38.667C176.099 38.8447 175.949 38.9963 175.754 39.122C175.559 39.2477 175.325 39.3452 175.052 39.4145C174.783 39.4795 174.484 39.512 174.155 39.512C173.826 39.512 173.525 39.4795 173.252 39.4145C172.983 39.3452 172.751 39.2477 172.556 39.122C172.361 38.9963 172.209 38.8447 172.101 38.667C171.997 38.485 171.945 38.2813 171.945 38.056C171.945 37.939 171.973 37.8285 172.03 37.7245C172.09 37.6205 172.183 37.5685 172.309 37.5685H173.369C173.369 37.7635 173.379 37.926 173.401 38.056C173.427 38.1817 173.468 38.2835 173.525 38.3615C173.585 38.4395 173.665 38.4958 173.765 38.5305C173.869 38.5608 173.999 38.576 174.155 38.576ZM184.567 40.2985V47H182.779V44.0945H180.413V47H178.619V40.2985H180.413V42.788H182.779V40.2985H184.567ZM189.562 44.1985C189.125 44.2202 188.761 44.2592 188.47 44.3155C188.18 44.3675 187.948 44.4368 187.775 44.5235C187.606 44.6102 187.485 44.7098 187.411 44.8225C187.342 44.9308 187.307 45.05 187.307 45.18C187.307 45.44 187.378 45.6242 187.521 45.7325C187.669 45.8408 187.872 45.895 188.132 45.895C188.431 45.895 188.689 45.843 188.906 45.739C189.127 45.6307 189.346 45.4638 189.562 45.2385V44.1985ZM185.909 41.228C186.304 40.8727 186.739 40.6083 187.216 40.435C187.693 40.2573 188.208 40.1685 188.763 40.1685C189.162 40.1685 189.517 40.2335 189.829 40.3635C190.145 40.4935 190.412 40.6755 190.628 40.9095C190.849 41.1392 191.018 41.4143 191.135 41.735C191.252 42.0557 191.311 42.4067 191.311 42.788V47H190.492C190.323 47 190.193 46.9762 190.102 46.9285C190.015 46.8808 189.944 46.7812 189.887 46.6295L189.744 46.2005C189.575 46.3478 189.411 46.4778 189.25 46.5905C189.094 46.7032 188.932 46.7985 188.763 46.8765C188.594 46.9502 188.412 47.0065 188.217 47.0455C188.026 47.0845 187.812 47.104 187.573 47.104C187.279 47.104 187.01 47.065 186.767 46.987C186.525 46.909 186.315 46.7942 186.137 46.6425C185.964 46.4865 185.829 46.2937 185.734 46.064C185.639 45.8343 185.591 45.57 185.591 45.271C185.591 45.024 185.654 44.777 185.779 44.53C185.905 44.283 186.12 44.0598 186.423 43.8605C186.731 43.6568 187.138 43.49 187.645 43.36C188.156 43.2257 188.795 43.1498 189.562 43.1325V42.788C189.562 42.3677 189.474 42.06 189.296 41.865C189.118 41.6657 188.863 41.566 188.529 41.566C188.282 41.566 188.076 41.5963 187.911 41.657C187.747 41.7133 187.602 41.7762 187.476 41.8455C187.355 41.9105 187.24 41.9733 187.131 42.034C187.023 42.0903 186.897 42.1185 186.754 42.1185C186.629 42.1185 186.523 42.0882 186.436 42.0275C186.354 41.9625 186.284 41.8867 186.228 41.8L185.909 41.228Z" fill="#E5E5E5"/>
</svg>
