<svg width="31" height="58" viewBox="0 0 31 58" fill="none" xmlns="http://www.w3.org/2000/svg">
<path d="M25.4286 0H23.5714C20.4988 0 18 2.55645 18 5.7V13.3C18 16.4436 20.4988 19 23.5714 19H25.4286C28.5012 19 31 16.4436 31 13.3V5.7C31 2.55645 28.5012 0 25.4286 0ZM23.5714 1.9V7.6H19.8571V5.7C19.8571 3.6043 21.523 1.9 23.5714 1.9ZM29.1429 13.3C29.1429 15.3957 27.477 17.1 25.4286 17.1H23.5714C21.523 17.1 19.8571 15.3957 19.8571 13.3V9.5H29.1429V13.3ZM25.4286 7.6V1.9C27.477 1.9 29.1429 3.6043 29.1429 5.7V7.6H25.4286Z" fill="#C29216"/>
<path d="M7.29289 57.7071C7.68342 58.0976 8.31658 58.0976 8.70711 57.7071L15.0711 51.3431C15.4616 50.9526 15.4616 50.3195 15.0711 49.9289C14.6805 49.5384 14.0474 49.5384 13.6569 49.9289L8 55.5858L2.34315 49.9289C1.95262 49.5384 1.31946 49.5384 0.928932 49.9289C0.538408 50.3195 0.538408 50.9526 0.928932 51.3431L7.29289 57.7071ZM7 0L7 57H9L9 0L7 0Z" fill="#C29216"/>
</svg>
